<?xml version="1.0" encoding="utf-8"?>
<!-- Generator: Adobe Illustrator 26.0.2, SVG Export Plug-In . SVG Version: 6.00 Build 0)  -->
<svg version="1.1" id="Capa_1" xmlns="http://www.w3.org/2000/svg" xmlns:xlink="http://www.w3.org/1999/xlink" x="0px" y="0px"
	 viewBox="0 0 384 384" style="enable-background:new 0 0 384 384;" xml:space="preserve">
<style type="text/css">
	.st0{fill:#FFFFFF;}
</style>
<g>
	<path class="st0" d="M383.75,195.74c-3.32,9.4-10.04,12.78-19.86,12.76c-114.42-0.16-228.85-0.16-343.27,0
		c-9.82,0.01-16.55-3.35-19.87-12.76c0-2.24,0-4.49,0-6.73c3.4-9.62,10.42-12.74,20.29-12.73c114.14,0.16,228.28,0.16,342.42,0
		c9.87-0.01,16.89,3.12,20.29,12.73C383.75,191.25,383.75,193.5,383.75,195.74z"/>
	<path class="st0" d="M0.75,66.33c1.82-2.75,3.17-6.07,5.61-8.08c2.43-2.01,5.88-2.92,9.02-3.91c1.59-0.5,3.46-0.16,5.21-0.16
		c114.2,0,228.39,0.08,342.59-0.14c9.88-0.02,16.88,2.89,20.58,12.29c0,2.49,0,4.99,0,7.48c-1.73,2.66-2.97,5.96-5.33,7.82
		c-2.68,2.1-6.33,3.08-9.67,4.2c-1.46,0.49-3.21,0.13-4.83,0.13c-114.19,0-228.39-0.08-342.58,0.14
		c-9.89,0.02-16.88-2.89-20.58-12.29C0.75,71.32,0.75,68.82,0.75,66.33z"/>
	<path class="st0" d="M383.75,318.42c-0.39,0.74-0.82,1.46-1.16,2.23c-2.66,5.98-7.16,9.41-13.75,9.94
		c-1.36,0.11-2.74,0.12-4.11,0.12c-114.99,0.01-229.98-0.03-344.97,0.07c-9.18,0.01-15.61-3.27-18.7-12.16
		c-0.03-0.09-0.2-0.13-0.31-0.2c0-2.24,0-4.49,0-6.73c3.12-9.55,9.77-12.94,19.67-12.92c114.55,0.18,229.1,0.18,343.65,0
		c9.9-0.02,16.55,3.38,19.68,12.92C383.75,313.93,383.75,316.18,383.75,318.42z"/>
</g>
</svg>
